<?xml version="1.0" encoding="iso-8859-1"?>
<!-- Generator: Adobe Illustrator 19.0.0, SVG Export Plug-In . SVG Version: 6.00 Build 0)  -->
<svg version="1.1" id="Layer_1" xmlns="http://www.w3.org/2000/svg" xmlns:xlink="http://www.w3.org/1999/xlink" x="0px" y="0px"
	 viewBox="0 0 512.004 512.004" style="enable-background:new 0 0 512.004 512.004;" xml:space="preserve">
<g transform="translate(0 -1)">
	<g>
		<g>
			<path d="M110.937,406.337c-9.429,0-17.067,7.637-17.067,17.067c0,9.421,7.637,17.067,17.067,17.067s17.067-7.646,17.067-17.067
				C128.004,413.975,120.366,406.337,110.937,406.337z"/>
			<path d="M409.604,406.337c-9.429,0-17.067,7.637-17.067,17.067c0,9.421,7.637,17.067,17.067,17.067s17.067-7.646,17.067-17.067
				C426.67,413.975,419.033,406.337,409.604,406.337z"/>
			<path d="M366.936,261.273h145.067v-26.385c0-7.125-2.645-13.952-7.441-19.226h0.009l-74.146-81.57
				c-5.41-5.948-13.124-9.353-21.154-9.353h-42.334V261.273z"/>
			<path d="M452.27,321.004h59.733v-42.667H364.539c-8.09,0-14.669-6.579-14.669-14.669V124.737h-19.2
				c-12.945,0-23.467,10.522-23.467,23.467v181.333h-41.361l31.701-221.867h77.926c4.719,0,8.533-3.814,8.533-8.533
				s-3.814-8.533-8.533-8.533h-81.331l-40.107-48.137c-1.365-1.613-3.26-2.679-5.35-2.978l-59.733-8.533
				c-2.705-0.393-5.342,0.521-7.245,2.415l-25.003,25.003l-22.093,14.72l-47.872-7.97c-3.968-0.708-7.962,1.587-9.395,5.41
				l-23.518,62.737H42.67c-3.49,0-6.622,2.125-7.927,5.367L9.587,201.537h101.35c4.719,0,8.533,3.814,8.533,8.533
				s-3.814,8.533-8.533,8.533H2.76l-2.15,5.367c-0.64,1.613-0.785,3.388-0.393,5.086l3.499,15.147h149.888
				c4.719,0,8.533,3.814,8.533,8.533c0,4.719-3.814,8.533-8.533,8.533H7.658l17.946,77.781v72.26
				c0,11.375,9.25,20.625,20.625,20.625h5.658c4.164,28.894,29.022,51.2,59.051,51.2s54.886-22.306,59.051-51.2h180.565
				c4.164,28.894,29.022,51.2,59.051,51.2s54.886-22.306,59.051-51.2h22.724c11.375,0,20.625-9.25,20.625-20.625v-73.242H452.27
				c-4.719,0-8.533-3.814-8.533-8.533S447.551,321.004,452.27,321.004z M110.937,466.071c-23.526,0-42.667-19.14-42.667-42.667
				c0-23.526,19.14-42.667,42.667-42.667c23.526,0,42.667,19.14,42.667,42.667C153.604,446.93,134.463,466.071,110.937,466.071z
				 M231.01,95.972L218.09,128.27v0.009c-1.212,3.038-4.113,4.992-7.381,4.992H72.051l18.807-50.159l44.279,7.373
				c2.142,0.35,4.335-0.102,6.135-1.314l25.6-17.067c0.461-0.307,0.896-0.666,1.297-1.067l22.588-22.579l52.258,7.467l28.902,34.679
				h-32.981C235.447,90.604,232.315,92.729,231.01,95.972z M452.27,423.404c0,23.526-19.14,42.667-42.667,42.667
				c-23.526,0-42.667-19.14-42.667-42.667c0-23.526,19.14-42.667,42.667-42.667C433.13,380.737,452.27,399.878,452.27,423.404z"/>
		</g>
	</g>
</g>
<g>
</g>
<g>
</g>
<g>
</g>
<g>
</g>
<g>
</g>
<g>
</g>
<g>
</g>
<g>
</g>
<g>
</g>
<g>
</g>
<g>
</g>
<g>
</g>
<g>
</g>
<g>
</g>
<g>
</g>
</svg>
